<?xml version="1.0" standalone="yes"?>
<svg xmlns="http://www.w3.org/2000/svg" width="848" height="123">
<path style="fill:#e8e9ed; stroke:none;" d="M0 0L0 2C34.7168 -0.739861 70.1443 1 105 1L289 1L848 1C841.564 -1.70073 831.951 0 825 0L775 0L602 0L0 0z"/>
<path style="fill:#e7e8ec; stroke:none;" d="M4 1C7.95863 2.66111 12.7396 2 17 2L42 2L130 2L436 2L527 2L550 2C555.28 2 560.25 1.46513 565 4C571.945 0.137436 582.249 2 590 2L644 2L781 2L826 2C833.219 2 840.865 2.78442 848 2C841.564 -0.700729 831.951 1 825 1L776 1L603 1L4 1z"/>
<path style="fill:#ffcff4; stroke:none;" d="M0 2L0 123L69 123C65.8091 114.234 60.056 106.084 55.4213 98L31.4213 56L11.4213 21C7.81289 14.7059 4.65787 7.56364 0 2z"/>
<path style="fill:#e7bffa; stroke:none;" d="M1 2C4.88657 15.2129 14.9191 28.0395 21.7191 40C37.4337 67.64 54.1837 94.8701 69 123L72 123C86.8163 94.8701 103.566 67.6401 119.281 40C126.081 28.0395 136.113 15.2129 140 2L1 2z"/>
<path style="fill:#fff172; stroke:none;" d="M141 2C125.811 22.9067 114.433 47.5791 101.579 70L82.1505 104C78.6219 110.182 74.4387 116.301 72 123L210 123C207.503 114.512 201.639 106.666 197.281 99L169.85 51L151.579 19C148.322 13.3187 145.488 6.79285 141 2z"/>
<path style="fill:#c8fab6; stroke:none;" d="M142 2C146.067 13.1726 153.668 23.6908 159.579 34C170.843 53.6486 182.087 73.3111 193.281 93C198.882 102.852 205.515 112.592 210 123C214.555 121.598 216.142 117.972 218.421 114L230.421 93C242.069 72.6831 253.706 52.3586 265.281 32C270.882 22.1482 277.515 12.4081 282 2L142 2z"/>
<path style="fill:#fdd3a2; stroke:none;" d="M282 2C267.376 25.8946 254.038 50.6693 240.15 75C231.112 90.8354 220.711 106.484 213 123L352 123C348.113 109.787 338.081 96.9605 331.281 85C315.566 57.36 298.816 30.1299 284 2L282 2z"/>
<path style="fill:#a3f6f6; stroke:none;" d="M284 2C288.067 13.1726 295.668 23.6908 301.579 34C312.843 53.6486 324.087 73.3111 335.281 93C340.882 102.852 347.515 112.592 352 123C356.444 120.692 358.302 116.251 360.719 112L373.281 90L405.85 33C411.643 22.8507 418.485 12.7869 423 2L284 2z"/>
<path style="fill:#fff172; stroke:none;" d="M423 2C407.212 28.7721 392.082 55.9787 376.719 83C369.565 95.5826 359.021 109.067 355 123L493 123C480.003 95.162 462.315 68.6482 447 42C442.218 33.6794 437.462 25.3427 432.719 17C429.809 11.8811 427.248 6.1187 423 2z"/>
<path style="fill:#ffcff4; stroke:none;" d="M424 2C428.485 12.4081 435.118 22.1482 440.719 32C452.294 52.3586 463.931 72.6831 475.579 93L487.579 114C489.858 117.972 491.445 121.598 496 123C510.816 94.8701 527.566 67.64 543.281 40C550.081 28.0395 560.113 15.2129 564 2L424 2z"/>
<path style="fill:#e7bffa; stroke:none;" d="M566 2C568.535 13.0803 577.355 24.1774 583 34C594.669 54.3032 606.241 74.6625 617.85 95C621.846 102.001 625.807 109.025 629.85 115.999C631.007 117.995 632.939 122.541 635.891 122.079C638.666 121.645 640.367 117.107 641.579 115L653.579 94C665.034 74.0184 676.432 54.0032 687.85 34C693.627 23.878 701.758 13.2324 705 2L566 2z"/>
<path style="fill:#a3f6f6; stroke:none;" d="M706 2C710.661 13.1365 717.756 23.5115 723.719 34C734.913 53.6889 746.157 73.3514 757.421 93L768.85 113C771.307 117.305 773.021 121.526 778 123C792.816 94.8701 809.566 67.64 825.281 40C832.081 28.0395 842.113 15.2129 846 2L706 2z"/>
<path style="fill:#fff172; stroke:none;" d="M847 2C832.262 24.3445 819.95 48.7276 806.719 72C797.214 88.7182 785.608 105.345 778 123L848 123L848 39L848 15C848 10.7397 848.661 5.95856 847 2z"/>
<path style="fill:#c8fab6; stroke:none;" d="M564 3C549.174 27.2252 535.705 52.3594 521.579 77C513.121 91.7523 501.815 107.024 496 123L634 123C629.665 112.941 623.279 103.512 617.85 94L586.421 39L573.85 17C570.981 11.9741 568.608 6.61606 564 3z"/>
<path style="fill:#fdd3a2; stroke:none;" d="M705 3C690.184 28.1227 676.086 53.6951 661.579 79C653.349 93.3547 643.389 107.734 637 123L775 123C760.008 94.536 743.099 66.9414 727.15 39C720.416 27.2018 712.375 15.4744 707 3L705 3z"/>
<path style="fill:#f3f9c7; stroke:none;" d="M845 4L846 5L845 4z"/>
<path style="fill:#e7f9db; stroke:none;" d="M842 9L843 10L842 9z"/>
<path style="fill:#f3f9c7; stroke:none;" d="M841 11L842 12L841 11z"/>
<path style="fill:#e7f9db; stroke:none;" d="M838 16L839 17L838 16z"/>
<path style="fill:#f3f9c7; stroke:none;" d="M837 18L838 19L837 18z"/>
<path style="fill:#e7f9db; stroke:none;" d="M834 23L835 24L834 23z"/>
<path style="fill:#f3f9c7; stroke:none;" d="M833 25L834 26L833 25z"/>
<path style="fill:#e7f9db; stroke:none;" d="M830 30L831 31L830 30z"/>
<path style="fill:#f3f9c7; stroke:none;" d="M829 32L830 33L829 32z"/>
<path style="fill:#e7f9db; stroke:none;" d="M826 37L827 38L826 37z"/>
<path style="fill:#f3f9c7; stroke:none;" d="M825 39L826 40L825 39z"/>
<path style="fill:#e7f9db; stroke:none;" d="M822 44L823 45L822 44z"/>
<path style="fill:#f3f9c7; stroke:none;" d="M821 46L822 47L821 46z"/>
<path style="fill:#e7f9db; stroke:none;" d="M818 51L819 52L818 51z"/>
<path style="fill:#f3f9c7; stroke:none;" d="M817 53L818 54L817 53z"/>
<path style="fill:#e7f9db; stroke:none;" d="M814 58L815 59L814 58z"/>
<path style="fill:#f3f9c7; stroke:none;" d="M813 60L814 61L813 60z"/>
<path style="fill:#e7f9db; stroke:none;" d="M810 65L811 66L810 65z"/>
<path style="fill:#f3f9c7; stroke:none;" d="M809 67L810 68L809 67z"/>
<path style="fill:#e7f9db; stroke:none;" d="M806 72L807 73L806 72z"/>
<path style="fill:#f3f9c7; stroke:none;" d="M805 74L806 75L805 74z"/>
<path style="fill:#e7f9db; stroke:none;" d="M802 79L803 80L802 79z"/>
<path style="fill:#f3f9c7; stroke:none;" d="M801 81L802 82L801 81z"/>
<path style="fill:#e7f9db; stroke:none;" d="M798 86L799 87L798 86z"/>
<path style="fill:#f3f9c7; stroke:none;" d="M797 88L798 89L797 88z"/>
<path style="fill:#e7f9db; stroke:none;" d="M794 93L795 94L794 93z"/>
<path style="fill:#f3f9c7; stroke:none;" d="M793 95L794 96L793 95z"/>
<path style="fill:#e7f9db; stroke:none;" d="M790 100L791 101L790 100z"/>
<path style="fill:#f3f9c7; stroke:none;" d="M789 102L790 103L789 102z"/>
<path style="fill:#e7f9db; stroke:none;" d="M786 107L787 108L786 107z"/>
<path style="fill:#f3f9c7; stroke:none;" d="M785 109L786 110L785 109z"/>
<path style="fill:#e7f9db; stroke:none;" d="M782 114L783 115L782 114z"/>
<path style="fill:#f3f9c7; stroke:none;" d="M781 116L782 117L781 116z"/>
<path style="fill:#e7f9db; stroke:none;" d="M778 121L779 122L778 121z"/>
<path style="fill:#e8f8ce; stroke:none;" d="M354 122L355 123L354 122z"/>
</svg>
